<svg width="71" height="71" viewBox="0 0 71 71" fill="none" xmlns="http://www.w3.org/2000/svg">
<path d="M35.2801 69.883C28.4549 69.885 21.7822 67.863 16.1062 64.0726C10.4302 60.2822 6.00574 54.8937 3.3924 48.5885C0.779061 42.2834 0.0941924 35.3449 1.42448 28.6505C2.75476 21.9561 6.04045 15.8066 10.8659 10.9797C15.6914 6.15273 21.8399 2.86525 28.5339 1.53295C35.2279 0.200654 42.1667 0.883415 48.4726 3.49486C54.7785 6.1063 60.1683 10.5292 63.9604 16.204C67.7526 21.8789 69.7767 28.5508 69.7767 35.3761C69.7684 44.5235 66.1316 53.2942 59.6643 59.7634C53.197 66.2326 44.4276 69.872 35.2801 69.883ZM35.2801 2.95512C28.8649 2.95306 22.5932 4.85369 17.2583 8.4165C11.9234 11.9793 7.76495 17.0443 5.30902 22.9708C2.85308 28.8972 2.21002 35.4189 3.46106 41.7109C4.7121 48.003 7.80101 53.7826 12.3372 58.3189C16.8735 62.8551 22.6532 65.9441 28.9452 67.1951C35.2373 68.4462 41.7589 67.803 47.6854 65.3471C53.6118 62.8912 58.6769 58.7328 62.2397 53.3979C65.8025 48.063 67.7031 41.7913 67.7011 35.3761C67.6846 26.7845 64.2628 18.5498 58.1856 12.4766C52.1085 6.40332 43.8717 2.98686 35.2801 2.97589V2.95512Z" fill="#202020"/>
<path d="M35.2803 64.31C29.5573 64.312 23.9621 62.6169 19.2026 59.4388C14.4431 56.2608 10.733 51.7426 8.54145 46.4558C6.34992 41.169 5.77537 35.351 6.89062 29.7377C8.00587 24.1243 10.7607 18.9679 14.8068 14.9203C18.8529 10.8728 24.0084 8.11613 29.6213 6.99887C35.2342 5.88161 41.0525 6.45398 46.34 8.64362C51.6276 10.8333 56.1471 14.5418 59.3269 19.3002C62.5067 24.0585 64.2039 29.653 64.2039 35.376C64.1929 43.0446 61.1423 50.3962 55.7208 55.8197C50.2993 61.2432 42.9489 64.2962 35.2803 64.31ZM35.2803 8.52808C29.9674 8.52603 24.7731 10.0998 20.3547 13.0502C15.9363 16.0007 12.4922 20.1953 10.4581 25.1034C8.42394 30.0115 7.89108 35.4127 8.92708 40.6237C9.96309 45.8347 12.5214 50.6213 16.2782 54.3781C20.0351 58.135 24.8217 60.6932 30.0327 61.7292C35.2436 62.7652 40.6448 62.2324 45.5529 60.1983C50.4611 58.1642 54.6557 54.7201 57.6061 50.3017C60.5566 45.8832 62.1303 40.689 62.1283 35.376C62.1173 28.2589 59.2851 21.4364 54.2525 16.4038C49.2199 11.3712 42.3975 8.53906 35.2803 8.52808Z" fill="#202020"/>
<path d="M34.6989 30.4881L37.4075 29.8757L34.2007 48.3279H31.5854L34.6989 30.4881ZM35.114 24.6037C35.1139 24.0338 35.3381 23.4868 35.7382 23.0809C36.1382 22.675 36.682 22.4429 37.2518 22.4347C37.4825 22.4278 37.7123 22.4668 37.9278 22.5494C38.1433 22.6319 38.3404 22.7565 38.5074 22.9158C38.6744 23.0751 38.8081 23.2659 38.9007 23.4773C38.9934 23.6886 39.0432 23.9163 39.0472 24.1471C39.0229 24.7133 38.7781 25.2474 38.365 25.6353C37.9519 26.0232 37.4034 26.2341 36.8368 26.2227C36.6141 26.2368 36.3908 26.2055 36.1806 26.1309C35.9703 26.0562 35.7775 25.9397 35.6135 25.7884C35.4496 25.637 35.318 25.454 35.2268 25.2504C35.1355 25.0468 35.0866 24.8268 35.0828 24.6037H35.114Z" fill="#202020"/>
</svg>