<svg width="71" height="71" viewBox="0 0 71 71" fill="none" xmlns="http://www.w3.org/2000/svg">
<path d="M62.5243 60.9117H7.97532C6.11345 60.9091 4.32858 60.1684 3.01204 58.8518C1.6955 57.5353 0.954725 55.7504 0.952148 53.8885V16.8731C0.954718 15.0104 1.69518 13.2245 3.01145 11.9064C4.32771 10.5883 6.11255 9.84539 7.97532 9.84024H62.5243C64.3888 9.84282 66.1761 10.5846 67.4945 11.903C68.8128 13.2214 69.5546 15.0087 69.5572 16.8731V53.8885C69.5546 55.7521 68.8125 57.5384 67.4939 58.8553C66.1752 60.1721 64.3879 60.9117 62.5243 60.9117ZM7.97532 11.7787C6.62845 11.7812 5.33763 12.3181 4.38616 13.2714C3.43469 14.2247 2.90032 15.5165 2.90033 16.8634V53.8788C2.9029 55.2239 3.43842 56.5133 4.38961 57.4645C5.3408 58.4157 6.63014 58.9512 7.97532 58.9538H62.5243C63.8712 58.9538 65.163 58.4194 66.1163 57.468C67.0696 56.5165 67.6065 55.2256 67.609 53.8788V16.8634C67.609 15.5148 67.0733 14.2216 66.1198 13.268C65.1662 12.3144 63.8729 11.7787 62.5243 11.7787H7.97532Z" fill="#202020"/>
<path d="M69.5578 23.468H0.981934V16.8929C0.984503 15.0301 1.72496 13.2442 3.04123 11.9261C4.3575 10.608 6.14234 9.86514 8.00511 9.85999H62.5541C64.4185 9.86256 66.2059 10.6043 67.5243 11.9227C68.8426 13.241 69.5844 15.0284 69.587 16.8929L69.5578 23.468ZM2.93011 21.5198H67.6096V16.8929C67.6096 15.5443 67.0739 14.251 66.1203 13.2974C65.1667 12.3438 63.8734 11.8082 62.5249 11.8082H7.97588C6.62901 11.8107 5.33819 12.3476 4.38673 13.3009C3.43526 14.2542 2.90089 15.546 2.90089 16.8929L2.93011 21.5198Z" fill="#202020"/>
<path d="M9.14408 18.3343C8.80652 18.3343 8.47654 18.2341 8.19601 18.0464C7.91547 17.8586 7.697 17.5918 7.56827 17.2797C7.43954 16.9677 7.40636 16.6244 7.47293 16.2935C7.5395 15.9626 7.70282 15.6588 7.9422 15.4208C8.18158 15.1828 8.48623 15.0212 8.81754 14.9566C9.14885 14.8919 9.49188 14.9271 9.80319 15.0576C10.1145 15.1881 10.3801 15.4081 10.5662 15.6897C10.7523 15.9713 10.8507 16.3018 10.8487 16.6394C10.8487 16.8628 10.8046 17.084 10.7188 17.2903C10.633 17.4966 10.5073 17.6839 10.3489 17.8414C10.1904 17.9989 10.0024 18.1235 9.79567 18.2081C9.5889 18.2927 9.36748 18.3356 9.14408 18.3343ZM9.14408 16.3861C9.11127 16.3861 9.07877 16.3927 9.04857 16.4056C9.01837 16.4184 8.99108 16.4372 8.96834 16.4609C8.94559 16.4845 8.92788 16.5125 8.91623 16.5432C8.90458 16.5739 8.89925 16.6066 8.90056 16.6394C8.90056 16.9121 9.39733 16.9121 9.39733 16.6394C9.39733 16.5722 9.37066 16.5078 9.32316 16.4603C9.27566 16.4128 9.21125 16.3861 9.14408 16.3861Z" fill="#202020"/>
<path d="M14.6675 18.3342C14.3295 18.3362 13.9986 18.2376 13.7168 18.0511C13.435 17.8645 13.215 17.5984 13.0848 17.2865C12.9545 16.9746 12.9199 16.631 12.9854 16.2994C13.0509 15.9679 13.2134 15.6633 13.4524 15.4243C13.6914 15.1853 13.996 15.0227 14.3276 14.9573C14.6592 14.8918 15.0027 14.9264 15.3146 15.0566C15.6265 15.1868 15.8926 15.4069 16.0792 15.6887C16.2658 15.9705 16.3644 16.3014 16.3624 16.6393C16.3599 17.0881 16.1805 17.5177 15.8632 17.835C15.5459 18.1523 15.1162 18.3317 14.6675 18.3342ZM14.6675 16.3861C14.6003 16.3861 14.5359 16.4128 14.4884 16.4603C14.4409 16.5078 14.4143 16.5722 14.4143 16.6393C14.4143 16.9121 14.911 16.9121 14.911 16.6393C14.9123 16.6065 14.907 16.5738 14.8954 16.5431C14.8837 16.5125 14.866 16.4844 14.8432 16.4608C14.8205 16.4371 14.7932 16.4183 14.763 16.4055C14.7328 16.3927 14.7003 16.386 14.6675 16.3861Z" fill="#202020"/>
<path d="M20.1904 18.3342C19.8525 18.3362 19.5215 18.2376 19.2397 18.0511C18.9579 17.8645 18.7379 17.5984 18.6077 17.2865C18.4775 16.9746 18.4429 16.631 18.5084 16.2994C18.5738 15.9679 18.7364 15.6633 18.9754 15.4243C19.2143 15.1853 19.519 15.0227 19.8506 14.9573C20.1821 14.8918 20.5257 14.9264 20.8375 15.0566C21.1494 15.1868 21.4156 15.4069 21.6021 15.6887C21.7887 15.9705 21.8873 16.3014 21.8854 16.6393C21.8854 17.0889 21.7068 17.5199 21.3889 17.8378C21.0711 18.1557 20.64 18.3342 20.1904 18.3342ZM20.1904 16.3861C20.1233 16.3861 20.0588 16.4128 20.0113 16.4603C19.9638 16.5078 19.9372 16.5722 19.9372 16.6393C19.9372 16.9121 20.434 16.9121 20.434 16.6393C20.4353 16.6065 20.43 16.5738 20.4183 16.5431C20.4067 16.5125 20.3889 16.4844 20.3662 16.4608C20.3434 16.4371 20.3161 16.4183 20.2859 16.4055C20.2557 16.3927 20.2233 16.386 20.1904 16.3861Z" fill="#202020"/>
<path d="M59.2121 54.3074H40.7044C39.8691 54.3048 39.0688 53.9712 38.479 53.3796C37.8893 52.788 37.5581 51.9867 37.5581 51.1513V31.2604C37.5581 30.4251 37.8893 29.6238 38.479 29.0322C39.0688 28.4406 39.8691 28.107 40.7044 28.1044H59.2121C60.0484 28.107 60.8496 28.4403 61.4409 29.0316C62.0323 29.623 62.3656 30.4242 62.3681 31.2604V51.1611C62.363 51.9956 62.0286 52.7944 61.4375 53.3836C60.8465 53.9728 60.0467 54.3048 59.2121 54.3074ZM40.7044 30.0428C40.5463 30.0428 40.3897 30.0742 40.2437 30.135C40.0977 30.1958 39.9651 30.2849 39.8538 30.3972C39.7424 30.5095 39.6543 30.6427 39.5947 30.7892C39.5351 30.9357 39.505 31.0925 39.5063 31.2507V51.1513C39.505 51.3095 39.5351 51.4664 39.5947 51.6129C39.6543 51.7593 39.7424 51.8925 39.8538 52.0048C39.9651 52.1171 40.0977 52.2063 40.2437 52.2671C40.3897 52.3279 40.5463 52.3592 40.7044 52.3592H59.2121C59.5325 52.3592 59.8397 52.2319 60.0662 52.0054C60.2927 51.7789 60.42 51.4717 60.42 51.1513V31.2604C60.42 30.9401 60.2927 30.6328 60.0662 30.4063C59.8397 30.1798 59.5325 30.0526 59.2121 30.0526L40.7044 30.0428Z" fill="#202020"/>
<path d="M28.4896 36.6276H10.4008C9.62575 36.6276 8.88247 36.3198 8.33444 35.7718C7.78641 35.2237 7.47852 34.4804 7.47852 33.7054V32.1176C7.47852 31.3426 7.78641 30.5993 8.33444 30.0512C8.88247 29.5032 9.62575 29.1953 10.4008 29.1953H28.4896C29.2647 29.1953 30.008 29.5032 30.556 30.0512C31.104 30.5993 31.4119 31.3426 31.4119 32.1176V33.7054C31.4119 34.4804 31.104 35.2237 30.556 35.7718C30.008 36.3198 29.2647 36.6276 28.4896 36.6276ZM10.4008 31.0753C10.1424 31.0753 9.89469 31.178 9.71201 31.3606C9.52933 31.5433 9.42669 31.7911 9.42669 32.0494V33.6372C9.42669 33.8955 9.52933 34.1433 9.71201 34.326C9.89469 34.5086 10.1424 34.6113 10.4008 34.6113H28.4896C28.748 34.6113 28.9957 34.5086 29.1784 34.326C29.3611 34.1433 29.4637 33.8955 29.4637 33.6372V32.0494C29.4637 31.7911 29.3611 31.5433 29.1784 31.3606C28.9957 31.178 28.748 31.0753 28.4896 31.0753H10.4008Z" fill="#202020"/>
<path d="M30.4767 39.6961H8.42334V41.6443H30.4767V39.6961Z" fill="#202020"/>
<path d="M30.4767 44.9951H8.42334V46.9433H30.4767V44.9951Z" fill="#202020"/>
<path d="M30.4767 50.2942H8.42334V52.2424H30.4767V50.2942Z" fill="#202020"/>
</svg>