<svg width="79" height="79" viewBox="0 0 79 79" fill="none" xmlns="http://www.w3.org/2000/svg">
<g clip-path="url(#clip0_457_14512)">
<path d="M77.4208 78.2713H1.13921C0.837073 78.2713 0.547304 78.1513 0.333661 77.9376C0.120017 77.724 0 77.4342 0 77.1321V63.4615C0 63.1594 0.120017 62.8696 0.333661 62.656C0.547304 62.4423 0.837073 62.3223 1.13921 62.3223H8.73395V50.1707C8.73395 49.8686 8.85397 49.5788 9.06761 49.3652C9.28125 49.1515 9.57102 49.0315 9.87316 49.0315H19.0932V36.8799C19.0932 36.5778 19.2132 36.288 19.4268 36.0744C19.6405 35.8607 19.9303 35.7407 20.2324 35.7407H59.1554C59.4576 35.7407 59.7473 35.8607 59.961 36.0744C60.1746 36.288 60.2947 36.5778 60.2947 36.8799V49.0315H69.6817C69.9839 49.0315 70.2736 49.1515 70.4873 49.3652C70.7009 49.5788 70.8209 49.8686 70.8209 50.1707V62.3223H77.436C77.7381 62.3223 78.0279 62.4423 78.2415 62.656C78.4552 62.8696 78.5752 63.1594 78.5752 63.4615V77.1321C78.5752 77.283 78.5452 77.4323 78.487 77.5715C78.4288 77.7108 78.3436 77.837 78.2362 77.943C78.1288 78.049 78.0014 78.1326 77.8614 78.1889C77.7215 78.2453 77.5717 78.2733 77.4208 78.2713ZM2.27842 75.9929H76.2816V64.6007H69.6666C69.3644 64.6007 69.0747 64.4807 68.861 64.2671C68.6474 64.0534 68.5274 63.7637 68.5274 63.4615V51.3099H59.1402C58.8381 51.3099 58.5483 51.1899 58.3347 50.9763C58.121 50.7626 58.001 50.4729 58.001 50.1707V38.0191H21.3564V50.1707C21.3564 50.4729 21.2364 50.7626 21.0227 50.9763C20.8091 51.1899 20.5193 51.3099 20.2172 51.3099H10.9972V63.4615C10.9972 63.7637 10.8772 64.0534 10.6635 64.2671C10.4499 64.4807 10.1601 64.6007 9.858 64.6007H2.26326L2.27842 75.9929Z" fill="#202020"/>
<path d="M39.7584 78.2715C39.4562 78.2715 39.1664 78.1514 38.9528 77.9378C38.7392 77.7242 38.6191 77.4344 38.6191 77.1322V70.6312C38.6191 70.329 38.7392 70.0392 38.9528 69.8256C39.1664 69.612 39.4562 69.4919 39.7584 69.4919C40.0605 69.4919 40.3502 69.612 40.5639 69.8256C40.7775 70.0392 40.8976 70.329 40.8976 70.6312V77.117C40.8996 77.2679 40.8716 77.4177 40.8152 77.5577C40.7589 77.6977 40.6753 77.825 40.5693 77.9324C40.4633 78.0398 40.3371 78.1251 40.1978 78.1833C40.0586 78.2415 39.9092 78.2715 39.7584 78.2715Z" fill="#202020"/>
<path d="M39.7584 63.7199C39.4562 63.7199 39.1664 63.5998 38.9528 63.3862C38.7392 63.1725 38.6191 62.8828 38.6191 62.5807V54.1353C38.6191 53.8332 38.7392 53.5434 38.9528 53.3298C39.1664 53.1161 39.4562 52.9961 39.7584 52.9961C40.0605 52.9961 40.3502 53.1161 40.5639 53.3298C40.7775 53.5434 40.8976 53.8332 40.8976 54.1353V62.5807C40.8976 62.8828 40.7775 63.1725 40.5639 63.3862C40.3502 63.5998 40.0605 63.7199 39.7584 63.7199Z" fill="#202020"/>
<path d="M39.7203 47.2013C39.4182 47.2013 39.1284 47.0813 38.9148 46.8676C38.7011 46.654 38.5811 46.3643 38.5811 46.0621V1.13921C38.5801 0.989967 38.6086 0.84202 38.665 0.703849C38.7214 0.565677 38.8046 0.44001 38.9098 0.334124C39.015 0.228238 39.1401 0.144212 39.2779 0.0868686C39.4157 0.0295252 39.5635 -3.36102e-06 39.7127 2.87002e-10C40.0143 0.00199032 40.3028 0.122672 40.5161 0.335886C40.7293 0.549099 40.85 0.837688 40.8519 1.13921V46.0621C40.8519 46.3643 40.7319 46.654 40.5182 46.8676C40.3046 47.0813 40.0149 47.2013 39.7127 47.2013H39.7203Z" fill="#202020"/>
<path d="M39.7204 55.2745C38.6953 55.276 37.6929 54.9733 36.8399 54.4047C35.987 53.8362 35.3219 53.0273 34.9289 52.0805C34.536 51.1338 34.4327 50.0917 34.6324 49.0863C34.832 48.0808 35.3254 47.1572 36.0503 46.4323C36.7751 45.7075 37.6987 45.2141 38.7042 45.0144C39.7096 44.8148 40.7517 44.918 41.6985 45.311C42.6452 45.704 43.4541 46.369 44.0226 47.222C44.5912 48.0749 44.8939 49.0774 44.8924 50.1025C44.8904 51.4735 44.3449 52.7879 43.3753 53.7574C42.4058 54.7269 41.0915 55.2725 39.7204 55.2745ZM39.7204 47.2013C39.1463 47.1998 38.5846 47.3687 38.1065 47.6866C37.6284 48.0044 37.2554 48.457 37.0346 48.987C36.8139 49.517 36.7553 50.1005 36.8664 50.6638C36.9775 51.2271 37.2532 51.7447 37.6587 52.1512C38.0641 52.5577 38.581 52.8348 39.144 52.9474C39.707 53.0599 40.2907 53.0029 40.8213 52.7836C41.3519 52.5642 41.8054 52.1923 42.1245 51.7151C42.4436 51.2378 42.614 50.6766 42.614 50.1025C42.615 49.7218 42.5409 49.3448 42.3959 48.9928C42.251 48.6409 42.038 48.321 41.7692 48.0515C41.5004 47.782 41.1811 47.5682 40.8295 47.4223C40.4779 47.2764 40.101 47.2013 39.7204 47.2013Z" fill="#202020"/>
<path d="M39.7587 71.7854C38.7361 71.7839 37.7369 71.4793 36.8873 70.9101C36.0378 70.3409 35.3761 69.5326 34.9858 68.5874C34.5955 67.6422 34.4941 66.6025 34.6945 65.5997C34.895 64.597 35.3882 63.6761 36.1118 62.9535C36.8354 62.231 37.757 61.7392 38.76 61.5402C39.7631 61.3413 40.8026 61.4442 41.7473 61.8358C42.6919 62.2275 43.4992 62.8904 44.0672 63.7408C44.6351 64.5911 44.9383 65.5908 44.9383 66.6134C44.9363 67.9858 44.3897 69.3013 43.4185 70.271C42.4474 71.2408 41.1311 71.7854 39.7587 71.7854ZM39.7587 63.7198C39.1867 63.7213 38.628 63.8923 38.1531 64.2111C37.6783 64.53 37.3086 64.9825 37.0907 65.5113C36.8729 66.0402 36.8167 66.6218 36.9292 67.1826C37.0417 67.7434 37.3179 68.2582 37.7229 68.6622C38.1279 69.0661 38.6434 69.3409 39.2045 69.4519C39.7656 69.563 40.347 69.5052 40.8753 69.286C41.4036 69.0668 41.8551 68.6959 42.1727 68.2202C42.4904 67.7445 42.6599 67.1854 42.6599 66.6134C42.6579 65.8453 42.3513 65.1093 41.8074 64.5669C41.2636 64.0244 40.5268 63.7198 39.7587 63.7198Z" fill="#202020"/>
<path d="M77.4206 21.6221H53.0567C52.7546 21.6221 52.4648 21.5021 52.2512 21.2885C52.0375 21.0748 51.9175 20.7851 51.9175 20.4829V15.1666C51.9175 14.8645 52.0375 14.5747 52.2512 14.3611C52.4648 14.1475 52.7546 14.0274 53.0567 14.0274H62.0717V9.8731C62.0717 9.57096 62.1917 9.28119 62.4053 9.06755C62.619 8.8539 62.9088 8.73389 63.2109 8.73389H77.4206C77.6679 8.73359 77.9085 8.81374 78.1062 8.96223C78.3039 9.11072 78.4479 9.31947 78.5165 9.55701C78.5851 9.79454 78.5745 10.048 78.4865 10.279C78.3984 10.51 78.2375 10.7061 78.0282 10.8376L71.1929 15.1894L78.0282 19.5488C78.238 19.6786 78.3993 19.8739 78.4871 20.1045C78.575 20.3351 78.5845 20.5882 78.5143 20.8247C78.4412 21.0571 78.2956 21.26 78.0987 21.4035C77.9019 21.547 77.6642 21.6236 77.4206 21.6221ZM54.1959 19.3437H73.5094L68.4512 16.1312C68.2888 16.0279 68.155 15.8854 68.062 15.7169C67.9691 15.5483 67.9202 15.3591 67.9196 15.1666C67.9193 14.975 67.968 14.7866 68.0611 14.6191C68.1541 14.4516 68.2884 14.3107 68.4512 14.2097L73.5094 10.9895H64.3501V15.1894C64.3501 15.4916 64.23 15.7813 64.0164 15.995C63.8028 16.2086 63.513 16.3286 63.2109 16.3286H54.1959V19.3437Z" fill="#202020"/>
<path d="M63.211 16.306H40.0167C39.7145 16.306 39.4247 16.186 39.2111 15.9723C38.9975 15.7587 38.8774 15.4689 38.8774 15.1668V4.55694C38.8774 4.2548 38.9975 3.96503 39.2111 3.75139C39.4247 3.53774 39.7145 3.41772 40.0167 3.41772H63.211C63.5132 3.41772 63.8029 3.53774 64.0165 3.75139C64.2302 3.96503 64.3502 4.2548 64.3502 4.55694V15.1896C64.3443 15.4877 64.2216 15.7717 64.0086 15.9804C63.7956 16.1892 63.5093 16.306 63.211 16.306ZM41.1863 14.0276H62.1022V5.67334H41.1559L41.1863 14.0276Z" fill="#202020"/>
<path d="M53.0567 21.6223C52.8013 21.6234 52.553 21.5387 52.3515 21.3817C52.1501 21.2247 52.0072 21.0046 51.9459 20.7567C51.8846 20.5088 51.9084 20.2474 52.0134 20.0146C52.1184 19.7818 52.2986 19.5911 52.5251 19.473L62.6792 14.1567C62.8119 14.0874 62.9569 14.0449 63.1059 14.0316C63.255 14.0183 63.4052 14.0345 63.5481 14.0793C63.6909 14.1241 63.8235 14.1965 63.9383 14.2926C64.0531 14.3886 64.1478 14.5063 64.2171 14.639C64.2865 14.7716 64.329 14.9166 64.3423 15.0657C64.3555 15.2148 64.3393 15.365 64.2946 15.5078C64.2498 15.6506 64.1773 15.7832 64.0813 15.898C63.9853 16.0128 63.8676 16.1076 63.7349 16.1769L53.5883 21.4932C53.4244 21.5794 53.2418 21.6237 53.0567 21.6223Z" fill="#202020"/>
</g>
<defs>
<clipPath id="clip0_457_14512">
<rect width="78.56" height="78.279" fill="white"/>
</clipPath>
</defs>
</svg>