<svg width="73" height="74" viewBox="0 0 73 74" fill="none" xmlns="http://www.w3.org/2000/svg">
<g clip-path="url(#clip0_457_14482)">
<path d="M36.7166 34.9535C33.2487 34.9535 29.8585 33.9284 26.975 32.0076C24.0915 30.0868 21.8441 27.3567 20.5169 24.1626C19.1898 20.9685 18.8425 17.4537 19.519 14.0628C20.1956 10.672 21.8657 7.55725 24.3179 5.11256C26.7701 2.66788 29.8945 1.00306 33.2958 0.328573C36.6972 -0.345914 40.2228 0.000228246 43.4268 1.32328C46.6308 2.64633 49.3693 4.88684 51.296 7.76148C53.2227 10.6361 54.2511 14.0158 54.2511 17.4731C54.2473 22.108 52.3986 26.552 49.1111 29.8294C45.8235 33.1068 41.3659 34.9497 36.7166 34.9535ZM36.7166 2.16151C33.6772 2.16151 30.706 3.0601 28.1789 4.74367C25.6518 6.42724 23.6823 8.82016 22.5194 11.6197C21.3566 14.4193 21.0528 17.4997 21.6462 20.4715C22.2397 23.4432 23.704 26.1728 25.8537 28.3149C28.0034 30.457 30.7421 31.9153 33.7233 32.5056C36.7045 33.0959 39.7944 32.7915 42.6021 31.631C45.4097 30.4704 47.809 28.5059 49.4966 25.9858C51.1842 23.4657 52.0842 20.5032 52.0828 17.4731C52.077 13.4127 50.456 9.52042 47.5753 6.64997C44.6947 3.77952 40.7896 2.16532 36.7166 2.16151Z" fill="#202020"/>
<path d="M37.8373 26.2422H35.857C34.8301 26.2403 33.8459 25.8327 33.1197 25.1088C32.3936 24.385 31.9848 23.4038 31.9829 22.3801C31.9829 22.0934 32.0971 21.8185 32.3004 21.6158C32.5038 21.4131 32.7795 21.2992 33.0671 21.2992C33.3546 21.2992 33.6304 21.4131 33.8337 21.6158C34.037 21.8185 34.1512 22.0934 34.1512 22.3801C34.1512 22.8311 34.331 23.2635 34.6509 23.5824C34.9708 23.9013 35.4046 24.0805 35.857 24.0805H37.8373C38.2897 24.0805 38.7236 23.9013 39.0435 23.5824C39.3634 23.2635 39.5431 22.8311 39.5431 22.3801V20.4058C39.5431 19.9548 39.3634 19.5222 39.0435 19.2033C38.7236 18.8844 38.2897 18.7052 37.8373 18.7052H35.857C34.8307 18.7052 33.8465 18.2994 33.1202 17.5766C32.3939 16.8539 31.9848 15.8734 31.9829 14.8503V12.876C31.9848 11.8523 32.3936 10.8711 33.1197 10.1472C33.8459 9.42337 34.8301 9.01582 35.857 9.01392H37.8373C38.8642 9.01582 39.8485 9.42337 40.5747 10.1472C41.3008 10.8711 41.7095 11.8523 41.7114 12.876V12.9625C41.7114 13.2491 41.5973 13.5241 41.3939 13.7267C41.1906 13.9294 40.9148 14.0433 40.6272 14.0433C40.3397 14.0433 40.064 13.9294 39.8607 13.7267C39.6574 13.5241 39.5431 13.2491 39.5431 12.9625V12.876C39.5431 12.425 39.3634 11.9926 39.0435 11.6737C38.7236 11.3547 38.2897 11.1756 37.8373 11.1756H35.857C35.4046 11.1756 34.9708 11.3547 34.6509 11.6737C34.331 11.9926 34.1512 12.425 34.1512 12.876V14.872C34.1531 15.3217 34.3337 15.7524 34.6533 16.0698C34.973 16.3871 35.4058 16.5652 35.857 16.5652H37.8373C38.8642 16.5671 39.8485 16.9747 40.5747 17.6985C41.3008 18.4224 41.7095 19.4036 41.7114 20.4273V22.4016C41.7038 23.4216 41.2926 24.3973 40.5671 25.1165C39.8416 25.8357 38.8605 26.2403 37.8373 26.2422Z" fill="#202020"/>
<path d="M36.8615 10.873C36.574 10.873 36.2982 10.7591 36.0949 10.5564C35.8916 10.3537 35.7773 10.0788 35.7773 9.79214V6.82349C35.7773 6.53684 35.8916 6.26193 36.0949 6.05923C36.2982 5.85654 36.574 5.74268 36.8615 5.74268C37.149 5.74268 37.4248 5.85654 37.6281 6.05923C37.8314 6.26193 37.9457 6.53684 37.9457 6.82349V9.8282C37.9363 10.1086 37.8179 10.3743 37.6156 10.5692C37.4133 10.7642 37.1429 10.8731 36.8615 10.873Z" fill="#202020"/>
<path d="M36.8615 29.2108C36.574 29.2108 36.2982 29.097 36.0949 28.8943C35.8916 28.6916 35.7773 28.4167 35.7773 28.13V25.1614C35.7773 24.8747 35.8916 24.5998 36.0949 24.3971C36.2982 24.1944 36.574 24.0806 36.8615 24.0806C37.149 24.0806 37.4248 24.1944 37.6281 24.3971C37.8314 24.5998 37.9457 24.8747 37.9457 25.1614V28.13C37.9457 28.4167 37.8314 28.6916 37.6281 28.8943C37.4248 29.097 37.149 29.2108 36.8615 29.2108Z" fill="#202020"/>
<path d="M30.6456 74H5.99181C4.40328 73.9981 2.88034 73.368 1.75708 72.2482C0.633819 71.1284 0.00191274 69.6102 0 68.0266V65.3967C0.00191274 63.8131 0.633819 62.2947 1.75708 61.1749C2.88034 60.0551 4.40328 59.4252 5.99181 59.4233H30.6456C32.2341 59.4252 33.757 60.0551 34.8803 61.1749C36.0036 62.2947 36.6354 63.8131 36.6373 65.3967V68.0266C36.6354 69.6102 36.0036 71.1284 34.8803 72.2482C33.757 73.368 32.2341 73.9981 30.6456 74ZM5.99181 61.585C4.97777 61.585 4.00525 61.9865 3.28821 62.7013C2.57117 63.4162 2.16832 64.3858 2.16832 65.3967V68.0266C2.17023 69.0369 2.5737 70.0053 3.29033 70.7197C4.00695 71.4341 4.97835 71.8364 5.99181 71.8383H30.6456C31.659 71.8364 32.6304 71.4341 33.347 70.7197C34.0637 70.0053 34.4671 69.0369 34.469 68.0266V65.3967C34.469 64.3858 34.0662 63.4162 33.3492 62.7013C32.6321 61.9865 31.6596 61.585 30.6456 61.585H5.99181Z" fill="#202020"/>
<path d="M30.6456 61.4407H5.99181C4.40394 61.4407 2.88099 60.8126 1.75752 59.6939C0.634053 58.5753 0.0019154 57.0578 0 55.4748V52.8447C0.00191274 51.261 0.633819 49.7429 1.75708 48.6231C2.88034 47.5033 4.40328 46.8732 5.99181 46.8713H30.6456C32.2341 46.8732 33.757 47.5033 34.8803 48.6231C36.0036 49.7429 36.6354 51.261 36.6373 52.8447V55.4748C36.6354 57.0578 36.0033 58.5753 34.8799 59.6939C33.7564 60.8126 32.2334 61.4407 30.6456 61.4407ZM5.99181 49.033C4.97777 49.033 4.00525 49.4347 3.28821 50.1495C2.57117 50.8643 2.16832 51.8338 2.16832 52.8447V55.4748C2.17023 56.4845 2.57394 57.4521 3.29077 58.1654C4.0076 58.8787 4.97902 59.2791 5.99181 59.2791H30.6456C31.6584 59.2791 32.6298 58.8787 33.3466 58.1654C34.0634 57.4521 34.4671 56.4845 34.469 55.4748V52.8447C34.469 51.8338 34.0662 50.8643 33.3492 50.1495C32.6321 49.4347 31.6596 49.033 30.6456 49.033H5.99181Z" fill="#202020"/>
<path d="M30.6456 48.889H5.99181C4.40394 48.889 2.88099 48.2606 1.75752 47.142C0.634053 46.0233 0.0019154 44.5058 0 42.9228V40.2929C0.00191274 38.7093 0.633819 37.191 1.75708 36.0712C2.88034 34.9514 4.40328 34.3215 5.99181 34.3196H30.6456C32.2341 34.3215 33.757 34.9514 34.8803 36.0712C36.0036 37.191 36.6354 38.7093 36.6373 40.2929V42.9228C36.6354 44.5058 36.0033 46.0233 34.8799 47.142C33.7564 48.2606 32.2334 48.889 30.6456 48.889ZM5.99181 36.4884C4.97777 36.4884 4.00525 36.89 3.28821 37.6049C2.57117 38.3197 2.16832 39.2892 2.16832 40.3001V42.9301C2.17023 43.9397 2.57394 44.9074 3.29077 45.6207C4.0076 46.3339 4.97902 46.7346 5.99181 46.7346H30.6456C31.6584 46.7346 32.6298 46.3339 33.3466 45.6207C34.0634 44.9074 34.4671 43.9397 34.469 42.9301V40.3001C34.469 39.2892 34.0662 38.3197 33.3492 37.6049C32.6321 36.89 31.6596 36.4884 30.6456 36.4884H5.99181Z" fill="#202020"/>
<path d="M67.0083 74H42.3546C40.7661 73.9981 39.243 73.368 38.1198 72.2482C36.9965 71.1284 36.3647 69.6102 36.3628 68.0266V65.3967C36.3647 63.8131 36.9965 62.2947 38.1198 61.1749C39.243 60.0551 40.7661 59.4252 42.3546 59.4233H67.0083C68.5968 59.4252 70.1198 60.0551 71.2431 61.1749C72.3663 62.2947 72.9982 63.8131 73.0001 65.3967V68.0266C72.9982 69.6102 72.3663 71.1284 71.2431 72.2482C70.1198 73.368 68.5968 73.9981 67.0083 74ZM42.3546 61.585C41.3406 61.585 40.368 61.9865 39.6509 62.7013C38.9339 63.4162 38.5311 64.3858 38.5311 65.3967V68.0266C38.533 69.0369 38.9364 70.0053 39.653 70.7197C40.3697 71.4341 41.3411 71.8364 42.3546 71.8383H67.0083C68.0217 71.8364 68.9932 71.4341 69.7098 70.7197C70.4265 70.0053 70.8298 69.0369 70.8318 68.0266V65.3967C70.8318 64.3858 70.429 63.4162 69.712 62.7013C68.9949 61.9865 68.0223 61.585 67.0083 61.585H42.3546Z" fill="#202020"/>
<path d="M67.0083 61.4407H42.3546C40.7667 61.4407 39.2437 60.8126 38.1202 59.6939C36.9968 58.5753 36.3647 57.0578 36.3628 55.4748V52.8447C36.3647 51.261 36.9965 49.7429 38.1198 48.6231C39.243 47.5033 40.7661 46.8732 42.3546 46.8713H67.0083C68.5968 46.8732 70.1198 47.5033 71.2431 48.6231C72.3663 49.7429 72.9982 51.261 73.0001 52.8447V55.4748C72.9982 57.0578 72.366 58.5753 71.2426 59.6939C70.1191 60.8126 68.5961 61.4407 67.0083 61.4407ZM42.3546 49.033C41.3406 49.033 40.368 49.4347 39.6509 50.1495C38.9339 50.8643 38.5311 51.8338 38.5311 52.8447V55.4748C38.533 56.4845 38.9366 57.4521 39.6535 58.1654C40.3703 58.8787 41.3418 59.2791 42.3546 59.2791H67.0083C68.0211 59.2791 68.9925 58.8787 69.7093 58.1654C70.4261 57.4521 70.8298 56.4845 70.8318 55.4748V52.8447C70.8318 51.8338 70.429 50.8643 69.712 50.1495C68.9949 49.4347 68.0223 49.033 67.0083 49.033H42.3546Z" fill="#202020"/>
<path d="M67.0083 48.889H42.3546C40.7667 48.889 39.2437 48.2606 38.1202 47.142C36.9968 46.0233 36.3647 44.5058 36.3628 42.9228V40.2929C36.3647 38.7093 36.9965 37.191 38.1198 36.0712C39.243 34.9514 40.7661 34.3215 42.3546 34.3196H67.0083C68.5968 34.3215 70.1198 34.9514 71.2431 36.0712C72.3663 37.191 72.9982 38.7093 73.0001 40.2929V42.9228C72.9982 44.5058 72.366 46.0233 71.2426 47.142C70.1191 48.2606 68.5961 48.889 67.0083 48.889ZM42.3546 36.4884C41.3406 36.4884 40.368 36.89 39.6509 37.6049C38.9339 38.3197 38.5311 39.2892 38.5311 40.3001V42.9301C38.533 43.9397 38.9366 44.9074 39.6535 45.6207C40.3703 46.3339 41.3418 46.7346 42.3546 46.7346H67.0083C68.0211 46.7346 68.9925 46.3339 69.7093 45.6207C70.4261 44.9074 70.8298 43.9397 70.8318 42.9301V40.3001C70.8318 39.2892 70.429 38.3197 69.712 37.6049C68.9949 36.89 68.0223 36.4884 67.0083 36.4884H42.3546Z" fill="#202020"/>
<path d="M8.88299 48.889C8.59545 48.889 8.31968 48.7752 8.11636 48.5725C7.91305 48.3698 7.79883 48.0948 7.79883 47.8082V35.4004C7.79883 35.1137 7.91305 34.8388 8.11636 34.6361C8.31968 34.4334 8.59545 34.3196 8.88299 34.3196C9.17052 34.3196 9.44629 34.4334 9.64961 34.6361C9.85293 34.8388 9.96714 35.1137 9.96714 35.4004V47.8082C9.96714 48.0948 9.85293 48.3698 9.64961 48.5725C9.44629 48.7752 9.17052 48.889 8.88299 48.889Z" fill="#202020"/>
<path d="M18.4162 48.889C18.1287 48.889 17.8529 48.7752 17.6496 48.5725C17.4462 48.3698 17.332 48.0948 17.332 47.8082V35.4004C17.332 35.1137 17.4462 34.8388 17.6496 34.6361C17.8529 34.4334 18.1287 34.3196 18.4162 34.3196C18.7037 34.3196 18.9795 34.4334 19.1828 34.6361C19.3861 34.8388 19.5003 35.1137 19.5003 35.4004V47.8082C19.5003 48.0948 19.3861 48.3698 19.1828 48.5725C18.9795 48.7752 18.7037 48.889 18.4162 48.889Z" fill="#202020"/>
<path d="M27.9567 48.889C27.6692 48.889 27.3934 48.7752 27.1901 48.5725C26.9868 48.3698 26.8726 48.0948 26.8726 47.8082V35.4004C26.8726 35.1137 26.9868 34.8388 27.1901 34.6361C27.3934 34.4334 27.6692 34.3196 27.9567 34.3196C28.2443 34.3196 28.5199 34.4334 28.7233 34.6361C28.9266 34.8388 29.0409 35.1137 29.0409 35.4004V47.8082C29.0409 48.0948 28.9266 48.3698 28.7233 48.5725C28.5199 48.7752 28.2443 48.889 27.9567 48.889Z" fill="#202020"/>
<path d="M8.88299 60.9869C8.59545 60.9869 8.31968 60.8729 8.11636 60.6702C7.91305 60.4675 7.79883 60.1927 7.79883 59.9061V47.4983C7.79883 47.2116 7.91305 46.9366 8.11636 46.734C8.31968 46.5313 8.59545 46.4175 8.88299 46.4175C9.17052 46.4175 9.44629 46.5313 9.64961 46.734C9.85293 46.9366 9.96714 47.2116 9.96714 47.4983V59.9061C9.96714 60.1927 9.85293 60.4675 9.64961 60.6702C9.44629 60.8729 9.17052 60.9869 8.88299 60.9869Z" fill="#202020"/>
<path d="M18.4162 60.9869C18.1287 60.9869 17.8529 60.8729 17.6496 60.6702C17.4462 60.4675 17.332 60.1927 17.332 59.9061V47.4983C17.332 47.2116 17.4462 46.9366 17.6496 46.734C17.8529 46.5313 18.1287 46.4175 18.4162 46.4175C18.7037 46.4175 18.9795 46.5313 19.1828 46.734C19.3861 46.9366 19.5003 47.2116 19.5003 47.4983V59.9061C19.5003 60.1927 19.3861 60.4675 19.1828 60.6702C18.9795 60.8729 18.7037 60.9869 18.4162 60.9869Z" fill="#202020"/>
<path d="M27.9567 60.9869C27.6692 60.9869 27.3934 60.8729 27.1901 60.6702C26.9868 60.4675 26.8726 60.1927 26.8726 59.9061V47.4983C26.8726 47.2116 26.9868 46.9366 27.1901 46.734C27.3934 46.5313 27.6692 46.4175 27.9567 46.4175C28.2443 46.4175 28.5199 46.5313 28.7233 46.734C28.9266 46.9366 29.0409 47.2116 29.0409 47.4983V59.9061C29.0409 60.1927 28.9266 60.4675 28.7233 60.6702C28.5199 60.8729 28.2443 60.9869 27.9567 60.9869Z" fill="#202020"/>
<path d="M8.88299 73.0273C8.59545 73.0273 8.31968 72.9135 8.11636 72.7108C7.91305 72.5081 7.79883 72.2331 7.79883 71.9465V59.5459C7.79883 59.2593 7.91305 58.9844 8.11636 58.7817C8.31968 58.579 8.59545 58.4651 8.88299 58.4651C9.17052 58.4651 9.44629 58.579 9.64961 58.7817C9.85293 58.9844 9.96714 59.2593 9.96714 59.5459V71.9537C9.96524 72.2391 9.85016 72.5121 9.64705 72.7133C9.44394 72.9144 9.16928 73.0273 8.88299 73.0273Z" fill="#202020"/>
<path d="M18.4162 73.0273C18.1287 73.0273 17.8529 72.9135 17.6496 72.7108C17.4462 72.5081 17.332 72.2331 17.332 71.9465V59.5459C17.332 59.2593 17.4462 58.9844 17.6496 58.7817C17.8529 58.579 18.1287 58.4651 18.4162 58.4651C18.7037 58.4651 18.9795 58.579 19.1828 58.7817C19.3861 58.9844 19.5003 59.2593 19.5003 59.5459V71.9537C19.4984 72.2391 19.3834 72.5121 19.1803 72.7133C18.9771 72.9144 18.7025 73.0273 18.4162 73.0273Z" fill="#202020"/>
<path d="M27.9567 73.0273C27.6692 73.0273 27.3934 72.9135 27.1901 72.7108C26.9868 72.5081 26.8726 72.2331 26.8726 71.9465V59.5459C26.8726 59.2593 26.9868 58.9844 27.1901 58.7817C27.3934 58.579 27.6692 58.4651 27.9567 58.4651C28.2443 58.4651 28.5199 58.579 28.7233 58.7817C28.9266 58.9844 29.0409 59.2593 29.0409 59.5459V71.9537C29.039 72.2391 28.9239 72.5121 28.7208 72.7133C28.5177 72.9144 28.243 73.0273 27.9567 73.0273Z" fill="#202020"/>
<path d="M45.1442 49.3716C44.8567 49.3716 44.581 49.2578 44.3777 49.0551C44.1744 48.8524 44.0601 48.5774 44.0601 48.2907V35.8831C44.0601 35.5964 44.1744 35.3215 44.3777 35.1188C44.581 34.9161 44.8567 34.8022 45.1442 34.8022C45.4318 34.8022 45.7076 34.9161 45.9109 35.1188C46.1142 35.3215 46.2284 35.5964 46.2284 35.8831V48.2907C46.2284 48.5774 46.1142 48.8524 45.9109 49.0551C45.7076 49.2578 45.4318 49.3716 45.1442 49.3716Z" fill="#202020"/>
<path d="M54.6847 49.3716C54.3972 49.3716 54.1215 49.2578 53.9182 49.0551C53.7149 48.8524 53.6006 48.5774 53.6006 48.2907V35.8831C53.6006 35.5964 53.7149 35.3215 53.9182 35.1188C54.1215 34.9161 54.3972 34.8022 54.6847 34.8022C54.9723 34.8022 55.2481 34.9161 55.4515 35.1188C55.6548 35.3215 55.7689 35.5964 55.7689 35.8831V48.2907C55.7689 48.5774 55.6548 48.8524 55.4515 49.0551C55.2481 49.2578 54.9723 49.3716 54.6847 49.3716Z" fill="#202020"/>
<path d="M64.2184 49.3716C63.9309 49.3716 63.655 49.2578 63.4517 49.0551C63.2484 48.8524 63.1343 48.5774 63.1343 48.2907V35.8831C63.1343 35.5964 63.2484 35.3215 63.4517 35.1188C63.655 34.9161 63.9309 34.8022 64.2184 34.8022C64.506 34.8022 64.7817 34.9161 64.985 35.1188C65.1883 35.3215 65.3026 35.5964 65.3026 35.8831V48.2907C65.3026 48.5774 65.1883 48.8524 64.985 49.0551C64.7817 49.2578 64.506 49.3716 64.2184 49.3716Z" fill="#202020"/>
<path d="M45.1442 61.4407C44.8567 61.4407 44.581 61.327 44.3777 61.1243C44.1744 60.9216 44.0601 60.6466 44.0601 60.3599V47.9522C44.0601 47.6655 44.1744 47.3907 44.3777 47.188C44.581 46.9853 44.8567 46.8713 45.1442 46.8713C45.4318 46.8713 45.7076 46.9853 45.9109 47.188C46.1142 47.3907 46.2284 47.6655 46.2284 47.9522V60.3599C46.2284 60.6466 46.1142 60.9216 45.9109 61.1243C45.7076 61.327 45.4318 61.4407 45.1442 61.4407Z" fill="#202020"/>
<path d="M54.6847 61.4407C54.3972 61.4407 54.1215 61.327 53.9182 61.1243C53.7149 60.9216 53.6006 60.6466 53.6006 60.3599V47.9522C53.6006 47.6655 53.7149 47.3907 53.9182 47.188C54.1215 46.9853 54.3972 46.8713 54.6847 46.8713C54.9723 46.8713 55.2481 46.9853 55.4515 47.188C55.6548 47.3907 55.7689 47.6655 55.7689 47.9522V60.3599C55.7689 60.6466 55.6548 60.9216 55.4515 61.1243C55.2481 61.327 54.9723 61.4407 54.6847 61.4407Z" fill="#202020"/>
<path d="M64.2184 61.4407C63.9309 61.4407 63.655 61.327 63.4517 61.1243C63.2484 60.9216 63.1343 60.6466 63.1343 60.3599V47.9522C63.1343 47.6655 63.2484 47.3907 63.4517 47.188C63.655 46.9853 63.9309 46.8713 64.2184 46.8713C64.506 46.8713 64.7817 46.9853 64.985 47.188C65.1883 47.3907 65.3026 47.6655 65.3026 47.9522V60.3599C65.3026 60.6466 65.1883 60.9216 64.985 61.1243C64.7817 61.327 64.506 61.4407 64.2184 61.4407Z" fill="#202020"/>
<path d="M45.1442 73.5101C44.8567 73.5101 44.581 73.3963 44.3777 73.1936C44.1744 72.9909 44.0601 72.7159 44.0601 72.4293V60.0215C44.0601 59.7348 44.1744 59.46 44.3777 59.2573C44.581 59.0546 44.8567 58.9407 45.1442 58.9407C45.4318 58.9407 45.7076 59.0546 45.9109 59.2573C46.1142 59.46 46.2284 59.7348 46.2284 60.0215V72.4293C46.2284 72.7159 46.1142 72.9909 45.9109 73.1936C45.7076 73.3963 45.4318 73.5101 45.1442 73.5101Z" fill="#202020"/>
<path d="M54.6847 73.5101C54.3972 73.5101 54.1215 73.3963 53.9182 73.1936C53.7149 72.9909 53.6006 72.7159 53.6006 72.4293V60.0215C53.6006 59.7348 53.7149 59.46 53.9182 59.2573C54.1215 59.0546 54.3972 58.9407 54.6847 58.9407C54.9723 58.9407 55.2481 59.0546 55.4515 59.2573C55.6548 59.46 55.7689 59.7348 55.7689 60.0215V72.4293C55.7689 72.7159 55.6548 72.9909 55.4515 73.1936C55.2481 73.3963 54.9723 73.5101 54.6847 73.5101Z" fill="#202020"/>
<path d="M64.2184 73.5101C63.9309 73.5101 63.655 73.3963 63.4517 73.1936C63.2484 72.9909 63.1343 72.7159 63.1343 72.4293V60.0215C63.1343 59.7348 63.2484 59.46 63.4517 59.2573C63.655 59.0546 63.9309 58.9407 64.2184 58.9407C64.506 58.9407 64.7817 59.0546 64.985 59.2573C65.1883 59.46 65.3026 59.7348 65.3026 60.0215V72.4293C65.3026 72.7159 65.1883 72.9909 64.985 73.1936C64.7817 73.3963 64.506 73.5101 64.2184 73.5101Z" fill="#202020"/>
</g>
<defs>
<clipPath id="clip0_457_14482">
<rect width="73" height="74" fill="white"/>
</clipPath>
</defs>
</svg>