<svg width="71" height="71" viewBox="0 0 71 71" fill="none" xmlns="http://www.w3.org/2000/svg">
<path d="M41.4328 32.5274H31.2275V34.8283H41.4328V32.5274Z" fill="#202020"/>
<path d="M61.7231 62.3783H9.27946C7.15258 62.3631 5.118 61.5018 3.61939 59.9825C2.12078 58.4631 1.27973 56.4089 1.27979 54.2678V22.7691C1.29769 20.6389 2.14633 18.601 3.64269 17.0947C5.13906 15.5883 7.16336 14.7341 9.27946 14.7161H61.7231C63.8482 14.722 65.8854 15.5706 67.3935 17.0779C68.9015 18.5852 69.7589 20.6299 69.7799 22.7691V54.2678C69.7769 56.4179 68.927 58.479 67.4168 59.9994C65.9065 61.5197 63.8589 62.3752 61.7231 62.3783ZM9.27946 16.9594C7.76953 16.9773 6.32646 17.5891 5.2587 18.6639C4.19094 19.7388 3.58321 21.1915 3.56541 22.7115V54.2102C3.5683 55.7402 4.16954 57.2075 5.23889 58.2947C6.30823 59.382 7.7597 60.0018 9.27946 60.0199H61.7231C63.2528 60.0169 64.719 59.4038 65.8006 58.3149C66.8823 57.226 67.4913 55.7501 67.4943 54.2102V22.7691C67.4763 21.2392 66.8607 19.7779 65.7807 18.7014C64.7006 17.625 63.2429 17.0199 61.7231 17.0169L9.27946 16.9594Z" fill="#202020"/>
<path d="M63.9058 40.405H7.08528C5.52937 40.402 4.03823 39.7776 2.9391 38.669C1.83998 37.5604 1.22265 36.0581 1.22266 34.4919V20.5717C1.22265 19.0054 1.83998 17.5031 2.9391 16.3945C4.03823 15.2859 5.52937 14.6615 7.08528 14.6584H63.9058C65.4628 14.6615 66.9551 15.2855 68.056 16.3938C69.157 17.5021 69.7768 19.0043 69.7799 20.5717V34.4919C69.7768 36.0592 69.157 37.5615 68.056 38.6697C66.9551 39.778 65.4628 40.402 63.9058 40.405ZM7.08528 16.9593C6.13555 16.9623 5.22574 17.3443 4.55525 18.0214C3.88476 18.6985 3.50827 19.6156 3.50828 20.5717V34.4919C3.50827 35.4479 3.88476 36.3649 4.55525 37.0421C5.22574 37.7192 6.13555 38.1011 7.08528 38.1041H63.9058C64.8566 38.1011 65.7676 37.7196 66.4399 37.0428C67.1122 36.366 67.4912 35.449 67.4942 34.4919V20.5717C67.4912 19.6145 67.1122 18.6975 66.4399 18.0207C65.7676 17.3439 64.8566 16.9623 63.9058 16.9593H7.08528Z" fill="#202020"/>
<path d="M50.0094 16.9594H20.9819V8.9064C20.985 7.72456 21.4535 6.59222 22.2848 5.75761C23.116 4.923 24.242 4.45425 25.416 4.45425H45.621C46.794 4.45425 47.9188 4.92337 48.7482 5.75831C49.5777 6.59325 50.0437 7.72562 50.0437 8.9064L50.0094 16.9594ZM23.2676 14.6585H47.7237V8.9064C47.7237 8.33584 47.4986 7.78868 47.0978 7.38523C46.697 6.98178 46.1535 6.75511 45.5867 6.75511H25.416C24.8482 6.7551 24.3035 6.98141 23.9009 7.38453C23.4983 7.78765 23.2706 8.33478 23.2676 8.9064V14.6585Z" fill="#202020"/>
<path d="M12.1823 65.3118C11.1083 65.3087 10.0793 64.8772 9.32096 64.1116C8.5626 63.346 8.13671 62.3089 8.13672 61.2278V60.0774H16.2393V61.2278C16.2393 62.3109 15.8119 63.3497 15.0511 64.1156C14.2902 64.8815 13.2583 65.3118 12.1823 65.3118ZM10.8339 62.3782C11.0011 62.5741 11.2078 62.7318 11.4403 62.8409C11.6728 62.95 11.9258 63.008 12.1823 63.0109C12.4394 63.011 12.6933 62.9544 12.9263 62.8451C13.1593 62.7358 13.3657 62.5764 13.5309 62.3782H10.8339Z" fill="#202020"/>
<path d="M58.8088 65.3118C57.7348 65.3087 56.7058 64.8772 55.9474 64.1116C55.1891 63.346 54.7632 62.3089 54.7632 61.2278V60.0774H62.8657V61.2278C62.8657 62.3109 62.4382 63.3497 61.6774 64.1156C60.9166 64.8815 59.8848 65.3118 58.8088 65.3118ZM57.4602 62.3782C57.6274 62.5741 57.8342 62.7318 58.0668 62.8409C58.2993 62.95 58.5523 63.008 58.8088 63.0109C59.0656 63.0095 59.3189 62.9522 59.5516 62.843C59.7844 62.7338 59.991 62.5752 60.1572 62.3782H57.4602Z" fill="#202020"/>
</svg>